<svg version="1.1" id="Calque_1" xmlns="http://www.w3.org/2000/svg" x="0" y="0" viewBox="0 0 719.9 396.1" xml:space="preserve"><style>.st0{fill:#b5dee1}.st3{fill:#f5f0df}.st4{fill:#c1ce92}.st6{fill:#bdcd00}.st10{fill:#1a171b}</style><g id="Calque_5"><path class="st0" d="M15.8 36.1c-.6-1-.1-1.7-1.3-2.8 8.7-13 14.7-22.2 31.1-21.9 9.4 33 4.6 62-.4 95-9.1 59.9-9.8 120.5-31.6 178-12.9-9-16.7-23-11.2-42-7.2-74.3 5.3-149.1 17.3-222M337.4 34.2c4 25.9 1.9 53.1.1 79.7-3.6 51.4-7.1 103.3-6.9 154.8 8.1-3.9 19.8-.3 29-3 8.8-27.2 5.5-65.2 5.3-93.1-.8-27.1-1.9-54.2-3.3-81.3-.2-5.3 2.2-50-6-58.7-3.4 1.7-6.9 3.2-10.4 4.6"/><path d="M562.9 150.9c-7.2 1.8-2.2-17.9.8-21.6 4-5.1 12-9.5 17.8-12.2 14.3-6.8 41.1-11.8 53.6 1.2 6.3 6.5 14.4 25.8 9.1 34.7-6.7 11.2-19.2-3.1-27.8-6.9-16.9-7.4-43.1-4.3-59.5 3.8" fill="#ffeed8"/><path d="M344.3 342.1c-16.4-15.4-72.7-11.4-94.5-10.7-58.7 2-116.8 13-169.6 39.2.5 12.7 8 18.1 22.5 16.4 36 6.8 76.2 4.5 112.7 6 60.9 2.4 122.5 4.3 183.3 2.2 34.8-1.2 90.2 1.7 121.6-21.1-1.6-2.6-3.9-4.7-6.6-6l-15.8-5.4c-30-7.8-60.5-13.8-91.3-18-47.2-6-14.7-2.7-62.3-2.6" fill="#da9da8"/><path class="st3" d="M89.8 35.3c-5.8 19.6-1.8 43.5-1 63.9 1.7 29.9 2 59.8 1.1 89.7-.9 19.2-8.9 51.9-8 72.8.2 3.9-1.6 8.8-1.6 12.3 16-10.6 38.7-1.1 52.5-11.4 4.6-3.4 3.8-7.7 5.7-12.3 12.8-30.4 13.4-67.8 18.6-99.8 2.6-16 5-31.8 6.9-47.8 1.1-9.3 9-34.2 2.9-43.8-15.9-24.6-58.4-2.8-80-14.9M206.1 61.7c19.1 4.6 64.3 8.7 75.2 26.2 6.8 10.8-2.1 33.4-3.1 44.5-3.7 40.4-5.2 80.8-10.4 121.2-8.5 2.7-17.7 2.4-26-.8-15.9.4-31.6 2.9-46.8 7.3-4.3-7 12.3-94.4 11.7-88.4 4.4-43.5 6-68.6 3.9-112.4M442.8 88.2c-9.2-2-23.2 2.6-31.3 8.8 10.1 8.7 26.5 3.2 38.4.9-.2-9.8-7.8-14-18.8-9.7"/><path class="st4" d="M517.8 322c-16.9-37.9 2.5-85.3 50.1-79.7 38.8 4.5-2.5 21.9-10.4 35.6-6.1 10.6-3.8 21-5.9 32.4-4.7 25.8-28.5 8.4-48.5 20.6M654.5 180.9c21.7-7.5 48.3-.8 56 23.5 10.3 32.9 6.6 97.1-30 107.8-24.3 7.1-69 27-77-10.4-1.8-8.3-.8-21.2 3.5-28.7 7.7-13.3 21.6-11.6 32.1-19.3 27.1-19.9-20.5-64.3 27.3-78.9"/><path d="M601.6 220.6c-.7-5.4 2-9.9 7.1-12.5 8.1 10.4 17.1 3.8 26.8-2.2 10.6 18.4 4.4 36.4-17.5 39.7-12.3 1.9-15.9 10.1-22.2 20.6-3.8 6.4-18.2 29-29 17.3-7.7-8.4 5.1-12.5 9.7-16.1 18.4-14.6 15.7-23.6 23.6-46.8" fill="#ffed00"/><path class="st6" d="M461 321.5c-8.5-.2-22.8 12.3-10.8 18.5 3 1.5 8.3 1.5 11.7 1.2 4-.4 12.1-1.6 12.8-6.6 1.1-7.8-9.5-11.8-15.1-8.6"/><path d="M461.2 290c-.5-5.1 3.6-10.1 7.3-13.1 5.3-4.7 6.6 2.1 13.3 4.4 5.9 2.3 18.3 2.3 14.4 9-8.5.5-28.6-3.7-34.5 3.2" fill="#00aebb"/><path class="st4" d="M279 176.4c.4-2 2.1-3.5 2-5.8-.1-1.6-.9-3.1-1.1-4.7-.6-4.2 2.5-10.5 7.8-9.3 3.2.7 3.2 4.8 3.6 7.4 1 6.3-2.5 9.5-7.7 13"/><path d="M219 163.4c-.7-2.2.4-6.2 1.2-8.4.9-2.5 1.6-4.9 3.5-2.8.8.9 2.5 9.1 1.7 10.6-1.2 2.1-6.2 1.5-7.8.3" fill="#a481a2"/><path d="M244.7 169.2c1.3-2.9 11.9-4.8 13-.9 5.3-.2 8.5 7 6.3 11.6-2.9 6.2-13.6-.6-17.9 3.5" fill="#98b57c"/></g><g id="Calque_2"><path class="st10" d="M451.7 290.5c-9.7 6.4-19.9 14.6-31.6 16.7 1.3-.8 2.5-1.7 3.6-2.6 5.8-4.6 11-12.7 5.5-19.5-4-4.8-11.5-6.4-17.3-7.1-1.2-.1-1.6 1.3-1.1 2.1-4-1.2-8.2-1-12.1.6-.7-1.2-1.2-2.6-1.5-4.1 0-.8-.6-1.4-1.4-1.4-.8 0-1.4.6-1.4 1.4 0 1.9.6 3.7 1.8 5.1-5.1 2.4-9.4 6.2-12.5 11-5.7 9.7 2.5 19.3 12.4 20.6 7.2 1 14.7-1.1 21.1-4.6.1.2.4.4.7.4 13.1-1 24.2-9.8 34.9-16.6 1.4-.8.2-2.9-1.1-2zm-45.1 19.8c-8.4 2.1-22.3.2-22.4-11.1-.1-11.6 19.1-21.8 28.8-16.2.4.2 1 0 1.2-.4.2-.4.1-.9-.3-1.1-.4-.3-.9-.5-1.4-.8 7.4 1.6 19.9 5.2 15.2 15-3.7 7.8-13.2 12.6-21.1 14.6zM416.5 336.9h-.3c-11.9-.5-24.2-7.9-24-21 0-.5-.5-.8-.9-.7-.4 0-.7.3-.7.7-.6 13.2 11.2 21.9 23.4 23.1-.6 1-1.1 2-1.6 3-.7 1.5 1.5 2.7 2.2 1.3.6-1.4 1.3-2.8 2.1-4.1.6 0 1.1-.6 1-1.2s-.6-1.1-1.2-1.1zM386.2 333.8c-6-3.7-9.6-9.9-11.1-16.7-.3-1.3-2.1-.7-1.9.5 1.1 6.4 4.4 12.9 9.6 17-.2 0-.5.1-.7.2-7.9 4.4-24.6 4.6-30.3-3.6-4.3-6.3 3.5-14.6 9.2-16.4 7-2.2 14.6-.5 21.7-3 1.1-.4.7-2.2-.5-1.8-8.7 2.5-18.2-.8-26.3 4-5.7 3.4-9.9 11.4-7.1 17.8.4.8.9 1.6 1.5 2.2-3.3 0-6.7.8-9.5-1.7-.4-.4-1-.4-1.3 0-.4.4-.4 1 0 1.3-1.2.6-2.5 1.2-3.6 1.9-1 .6-.3 2.4.8 1.9 1.6-.7 3.1-1.5 4.7-2.3 3.4 2.1 7.9 1.7 11.8 1.9.2 0 .5 0 .7-.1 3.3 1.7 6.8 2.8 10.5 3.2 6.2.9 13.8.7 19.3-2.8.6-.4.9-1.1.6-1.7.2.1.5.3.7.4.6.3 1.4.1 1.7-.6.3-.5.1-1.2-.5-1.6zM358.6 341c-4.3 1.6-8.9 2.2-13.5 1.8-4.9-.5-9.6-2-14.4-3-.7-.2-1.4.3-1.6 1v.3c-.3 2.5-.2 5 .5 7.5.1.5.6.7 1.1.6s.7-.6.6-1.1c-.5-1.8-.5-3.7 0-5.5 9.5 2 19.1 5.3 28.5.7.6-.4.8-1.1.5-1.8-.6-.5-1.2-.7-1.7-.5z"/><path class="st10" d="M410 289.6h-.4c-.5-.2-1.1-.2-1.6-.2h-.5c-.5.1-.9.5-1.1 1-.1.1-.2.2-.2.3s-.1.2-.2.3l-.1.1c-.8 1 .6 2.4 1.6 1.4l.1-.1h.1l.3-.1c.6 0 1.2-.2 1.7-.4h.5c.6 0 1.1-.5 1.1-1.1-.2-.7-.7-1.2-1.3-1.2zM421.2 287.5c-.3-.3-.6-.5-1-.7-.7-.1-1.5.1-2 .6-.2.2-.3.3-.4.6-.2.2-.3.3-.4.5-.2.5-.3 1-.1 1.5 0 .3.1.5.3.7.2.2.5.3.8.3.7.2 1.4 0 1.9-.5.3-.4.6-.8 1-1.1.4-.6.4-1.4-.1-1.9zM404.5 270.7c-1.6 1.6-2.6 3.7-3 5.9-.3 1.7 2.1 2.4 2.6.7.5-1.9 1.6-3.3 2.5-5 .4-.6.2-1.5-.5-1.9-.5-.2-1.2-.1-1.6.3zM392.8 279.6c-1.2 0-2.3.1-3.4.5-.8.2-1.3 1.1-1.1 1.9s1.1 1.3 1.9 1.1c.9-.2 1.8-.3 2.6-.3.9 0 1.6-.7 1.6-1.6s-.7-1.6-1.6-1.6zM534.7 136.3c-.3 8.5 9.6 18.9 13.2 21.8 3 2.5 6.2 4.7 9.6 6.6-1.8 4.6-1.8 9.7 0 14.3 2.6 6.6 7.8 11.6 13.8 15.2 13.6 8.1 29.3 10.2 44.8 7.6 8.2-1.4 16.6-4 23.3-8.9 5.8-4.3 12.2-10.6 13-18.2.1-1 .1-1.9.1-2.9 1-.3 2-.7 2.9-1.1 1.8-.8 14.6-6.8 16.5-14.5 2-8.2-1.5-15.6-8.2-20.4-1-.6-2.2-.2-2.7.7-.2.3-.3.7-.3 1 .5 6.4-1.5 14-8 16.9-2.8 1.2-9.2 3.5-9.2-1.5 0-5.4 2.3-10.5 3.3-15.7.9-4.8.2-9.8-1.9-14.2-4.1-8.4-12.8-13.9-21.8-15.8-7.4-1.5-18.2-1.9-22.7 5.1-1.8 2.8-2.6 6.5-3.5 12.5.1.2.2.5 0 .1-9.6-16.1-34.1-14.7-48.5-6.7-6.9 3.7-13.4 9.9-13.7 18.1zm26.7 30.2c.3.2 7.3 2.5 7.4.5.1-4 .5-8 1.2-12 3.1-2.3 6.6-4 10.3-5.1 10.7-3.3 22.1-3.7 33.3-3.3 2.8 1.3 4.8 3.7 6.7 7 2.2 3.8 4.1 8.2 7.4 11.2 5.4 4.8 14.1 8.5 21.8 7.6 0 8.2-7.6 15.4-14.2 19.2-7.9 4.4-16.8 7-25.8 7.5-15.2 1-33.6-2.6-44-14.8-4.5-4.9-6-11.6-4.1-17.8zm-22-32.2c1.9-7.6 9.5-12.4 16.5-14.8 16-5.6 38.6-3.4 41.5 16.8.2 1.4 3.2 4.6 3.2 3.2 0-.3 0-.7-.1-1-.2-1.8-.7-4.1-.9-5.8-.4-5.1.3-8.8 2.3-14.6 2.7-7.8 13.4-8.2 20.1-6.8 8.9 1.9 18.2 7.6 20.5 17.1 1.3 5.4-.2 10.1-1.5 15.4-.9 2.9-1.4 5.8-1.6 8.8.5 3.1 2.4 5.7 5.2 7.1 1 .3 2.1.5 3.2.4 2.8-.3 5.6-1.2 8-2.6 5.5-3.5 8.4-9.2 9-15.5 8.2 9.2 2.3 21.8-9.7 26.4-4.7 1.8-4.3 1.4-5.7 1.8-9.5.8-19.6-5.4-24-13.6-1.8-3.3-3.8-6.5-6-9.6-1-1.8-2.4-3.4-4.2-4.5-2.2-1.2-17.8-.5-26.6.9-5.9.9-11.6 2.7-17 5.4.2-.5.4-1.1.6-1.6.4-1.1 1.2-7.1.6-6.1-2.9 5.3-7.2 16.7-7.6 22.8-.3-.1-1.6-.9-1.6-.9-3.5-1.7-6.8-3.7-10.1-5.8-3.4-2.7-16.6-12.8-14.1-22.9z"/><path class="st10" d="M596.8 124.8c-.2-.3-.1-.2 0 0zM517.2 189.9c.3-.1.6-.1.9-.2 3.6-1.2 7.1-2.4 10.8-3.2 2.1-.5 4.2-1 6.3-1.3 1.1-.3 2.3-.5 3.5-.6 1.4.1 1.5 1.3 2 2.5 1.9 3.9 3.2 8.1 3.9 12.4 1.4 5.5 1.7 11.2 1 16.8-.2 1.6-3.4.5-3.3-1.1.3-4.4.1-8.9-.6-13.3-.3-2.1-.8-4.1-1.2-6.1s-1.5-3.8-2.1-5.7c-.2-.6-.3-1.3-.8-1.5-1-.4-3.3.4-4.4.6-3 .4-5.9 1.1-8.8 1.9-1.6.5-3.2 1.1-4.9 1.6-1 .3-2 .5-2.4 1.5-.9 2-.8 4.9-.6 7 .5 5.3 2.4 10.3 3.9 15.4 1.8 6.2 4.2 12.4 5.5 18.7 4.1-2.5 8.6-4.2 13.3-5.2 2.7-.5 9.5 3.3 6.7 3.8-5.3 1-16 3.1-20.5 6-.9.5-2.1.2-2.6-.7-.1-.1-.1-.3-.2-.4-1.5-9.1-5.3-17.9-7.7-26.7-1.1-4.1-2.3-8.2-2.5-12.4-.1-2.5 0-5.9 1.6-8.1.7-1.1 2-1.4 3.2-1.7z"/><path class="st10" d="M532.8 227.4c0-.2.1-.4 0 0 0-.1.1-.4.1-.6l.3-1.2c.1-.4.3-.7.7-.8.5-.5 1.2-.7 1.8-.5.8.2 1.4 1 1.4 1.8-.1.9-.5 1.8-1.2 2.5-.1.2-.3.3-.5.4h-.1c-.3.3-.7.4-1.1.4-.5 0-1.1-.3-1.3-.8-.2-.4-.2-.8-.1-1.2zM542.2 219.3c-1-4.4-1.7-9-2.4-13.5-.5-3.3-1.1-6.5-1.8-9.7-.3-1.5-1-6.4-1.6-6.7 0 0-8.4 1.4-12.2 2.3-2.3.6-4.5 1.6-6.8 2.2.1 3.8 1.4 8 2.5 11.7 1.4 4.9 3.5 9.5 4.7 14.5.3 1.5 1.4 1.3 1.4-.1.1-1.1-.7-2.7-1-3.8-.4-1.4-.8-2.8-1.2-4.1-1.6-5.2-3.9-11.9-5.5-17.1 3.3-1.4 6.7-2.3 10.2-2.7 1.2-.1 2.4-.3 3.6-.5 1.2-.4 2.4-.7 3.6-.9.1.9.2 1.8.4 2.6.5 3.1 1.1 6.1 1.7 9.1.3 1.3.6 2.5.8 3.8s-.1 2.2.3 3.4c.4 1.3.6 2.6.7 4 .1 1 1.7 5.2 1.1 6-.3.5-3.5.9-4 1-1.4.3-2.7.7-4.1 1.1-2 .6-7.1 1-6.9 1.9.7 2.5.9 2.1 2.8 1.4s4-1 6-1.5c2.7-.6 5.4-1.4 8-2.3 0-.8-.2-1.5-.3-2.1zM602.4 213.1c-5.9 1-21 7.5-26.9 8.5-5.7 1-11.5 1.4-17.3 1.2-1-1.6-2.5-2.9-4.3-3.6-4.1-1.6-8.7-.5-11.6 2.8-.1.1-.2.3-.3.5-.6.8-.5 1.9.2 2.5 3.2 2.9 14.4 12.5 17 4.5.4-1.4.4-2.8 0-4.2 5.5.8 11.2.8 16.7 0 6.1-.8 14.7-2.9 20.3-5.4 2.1-1 8.1-7.2 6.2-6.8zm-46.9 15.6c-1.9.1-4.6-2.4-6-3.5-1.3-1.1-2.6-2.2-4.1-3.1 2.3-1 4.9-1 7.1.1 1.3.6 2.3 1.6 2.9 2.9.3.8.6 3.6.1 3.6zM620.8 178c-2.7 5.9-6 10.2-12.2 12.6-1.2.5-.7 2.3.5 1.9 6.3-2.4 12.1-6.7 13.8-13.6.3-1.2-1.6-2.1-2.1-.9zM416.6 299.6c-2.2 1.4-4.9 1.9-7.5 1.5-1.4-.2-2 1.7-.6 2.1 3.2.9 6.6.3 9.3-1.6 1.3-.8.2-2.8-1.2-2zM550 268.7c-2.5-10-14.1-24.3-26-20.5-9 2.9-11.5 15.4-12.6 23.4-1.4 10.1-1.4 20.9 1.2 30.8.2.8.4 1.5.7 2.3.5 1.2 2.4.7 2-.5-2.9-7.9-2.5-17.6-1.8-25.8s2-20.7 9.3-26c3.5-2.5 7.7-1.5 11.2.4 7.2 3.8 11.8 11 13.5 18.8 3.3 15-4 29.6-4.2 44.5 0 1.7 2.8 2.2 3 .4 1.2-8.1 2.7-16.1 3.9-24.1 1.2-8 1.7-16-.2-23.7zM690.3 246.8c-9.5-6.1-23.3-4.7-34-3.8-12.7 1.1-25.6 3.7-38.4 2.6-.9-.1-1 .9-.6 1.4-3.9.4-7.7 1.6-11.1 3.5-11.2 6.6-15.2 21.1-17 33-1.4 9.7-1.6 19.5-.7 29.3.1 1.5 2.5 1.5 2.4 0-1.6-21.9.7-65.1 31.8-62.5 12.6 1 17.4 13.1 18.5 24.1 1.2 11.8-.5 23.7-2.8 35.2-.4 2.2-.9 4.4-1.3 6.6-.2.7.3 1.5 1 1.6.7.2 1.4-.2 1.6-.9 3.1-10.3 4.7-20.9 5-31.6.4-10.6-.6-22.9-7.8-31.3-2.7-3.1-6.3-5.3-10.3-6.3 20.8-.2 42.6-7.3 62.1 1.4.7.3 1.5.1 1.8-.6.5-.6.4-1.3-.2-1.7z"/><path class="st10" d="M718.7 211.5c-1.9-11.3-6.4-22.9-15.3-30.4-9.8-8.2-22.8-8.4-34.6-5.1-.6.2-.9.8-.7 1.4.2.5.7.9 1.3.7 11.9-3.1 24.5-2.4 33.8 6.4 8.3 7.8 11.8 19.7 13.3 30.7 1.9 14.3-.6 28.4-3.4 42.4-1.8 8.9-3.8 17.9-5 26.9-.6 4.4-1 8.8-.9 13.3.1 5.4 0 10.1-2.6 15-.4.7-.1 1.6.7 1.9.6.3 1.4.1 1.8-.5 5.1-7.3 2.7-17.2 3.6-25.6 1.1-11.1 3.8-22.1 5.9-33.1 2.7-14.6 4.6-29.1 2.1-44z"/><path class="st10" d="M679.5 194.6c-.9-.7-2 .8-1.2 1.5 10.9 8.5 11.8 21.6 10.9 34.4-.1 1.4 2.3 1.7 2.5.3 1.9-13.5-.8-27.6-12.2-36.2zM544 326c-9.9-.6-19.8 0-29.5-2.8-.6-.2-1.2.2-1.4.8-.2.6.2 1.2.8 1.4 9.5 3.3 20.1 3.9 30 3.3.7 0 1.3-.6 1.3-1.3.1-.8-.5-1.4-1.2-1.4zM708.3 320.1c-9.8-2.7-21.5-.7-31.3 1-10.5 1.9-20.8 5-30.6 9.1-.2-.2-.5-.4-.9-.4-16.2-1.1-32.5.8-48.6-2.6-.5-.1-1 .2-1.1.6-.1.5.2 1 .6 1.1 15.4 4.1 31.7 3.2 47.5 3.5.2.4.6.5 1 .4 9.8-3.9 19.9-6.8 30.2-8.8 5.6-1.1 11.2-1.8 16.9-2.1 5.4-.3 10.6.4 16 .5.6-.1 1.1-.7 1-1.3-.1-.5-.3-.9-.7-1z"/><path class="st10" d="M557.6 293.8c-1.6 15.1-2.2 30.7-6.2 45.4-5.1-2-11.3-3.3-16.6-2.6-1.4.2-2.1 2.5-.4 2.8 6 .9 11.7 1 17.5 3 .7.2 1.5-.2 1.7-1 3.3-15.8 4.2-31.6 5.7-47.6.2-1.2-1.6-1.1-1.7 0zM579.8 322.4c0-6-.8-12-1.5-18-.5-4.6-1.4-9.6-.6-14.3.2-1.3-1.7-1.9-2-.5-1.7 8.7.7 18.4 1.2 27.1.4 7.3 1.6 21.3-8.2 22.9-1.7.3-1.3 3.1.4 2.9 10-.7 10.8-12.3 10.7-20.1zM590.5 260.3c-13.5-1.1-36.1 6.9-34 23.6.1.6.6 1.1 1.2 1.1.1.2.3.4.5.4 4.5.9 9.2.8 13.8 1l8.8.5c1.3.1 3.3.6 4.5-.2.7-.4 1.1-1.3.7-2-.1-.2-.2-.3-.3-.4-1-.9-2.5-.6-3.8-.6h-9c-4.5 0-9.4-.5-13.9.2-1.5-16 20-19.4 31.6-20.5.8 0 1.5-.7 1.5-1.5-.1-1-.8-1.6-1.6-1.6zM641.6 203.3c-.7-1-2.2-.1-1.6.9 6.3 10.2 9.1 22.5 6.5 34.3-.2.7.2 1.3.9 1.5.7.2 1.3-.2 1.5-.9 3.5-11.4-.7-26.1-7.3-35.8zM604.2 212.7c-2 5.3-3.3 11-5.2 16.4-1.9 5.7-4 11.4-6 17-.6 1.6 2 2.4 2.6.7 2-5.7 4-11.4 5.8-17.1 1.7-5.4 3.8-11.1 4.4-16.8.2-1-1.3-1-1.6-.2zM627.2 207.2c-.9 3.3-2.4 6.5-5.8 7.7-4.3 1.6-6-3.2-6.2-6.5-.1-1.3-2.2-1.3-2 0 .3 4.5 2.4 9.7 7.8 9.2 4.9-.5 8.7-5.3 9.3-9.9.1-1.8-2.7-2.1-3.1-.5z"/><path class="st6" d="M178.5 164.2c-1.2-3.2-6.5-13.1-10.1-9.5-1.3 1.3-1.2 4.5-1.4 6.1-.5 4 .8 14.7-3.5 16.4-1.4-5.4 2.4-21.2-3.2-22.5-11.1-2.5-22.5 27.8-22.9 35.2-.7 15.5 15 28.3 29.7 23.8 13.9-4.3 12.8-16 11.1-27.3-1.1-7.4 3.1-14.5.3-22.2z"/><path class="st10" d="M153.3 153.5c-.4-.9-1.8-.3-1.6.6 1 3.6-.4 7.7-1.9 10.9-.8 1.7-1.7 3.3-2.7 4.8-.8 1-1.6 1.9-2.6 2.8.2-7 1.2-14 3.2-20.8.3-1-1.3-1.5-1.6-.4-2.5 7.4-3.7 15.2-3.6 23 0 .6.5 1 1.1.9h.2c.3.3.7.4 1.2.3 3.7-.6 6.1-6.5 7.4-9.5 1.5-3.9 2.6-8.6.9-12.6zM155.5 176.7c-.4-.4-.9-.7-1.5-.8l-.3-.1h-.1c-.4-.3-1-.4-1.5-.3-.4.1-.8.4-.9.9-.1.4 0 .8.2 1.2 0 .1 0 .2-.1.3 0 .1-.1.2-.1.3-.1.2-.2.5-.2.7-.2.4-.3.9-.4 1.3-.2.7.2 1.5.9 1.8.7.1 1.5-.1 2.1-.5 1.7-.8 3.2-3.3 1.9-4.8zM176.7 182c0-2.2-2.6-2.6-2.6-2.6-.3-.5-5.4.8-4.3 1.7.4.3.9.6 1.3.8-.1.2-.1.5-.1.7 0 1.7 1.8 2.2 3.1 2.3 1.5-.3 2.6-1.5 2.6-2.9z"/><path class="st6" d="M136.8 233.2c5.8 5.8-10.6 18.4-8.2 24 2.4 5.6 13.4.8 15.6-2 4.9-6.2 1.4-14.7-2.4-20.3l1.3-.6"/><path class="st10" d="M186 260.3c-1-6.5-5.5-10.2-10.6-13.6-1.9-1.3-4-2.7-4.8-5-1.1-3.5 1.2-7.7 2.9-10.6.4-.7.3-1.7-.3-2.3-1.7-1.4-3.9-1.8-6-2.5-.3-.2-.6-.3-1-.3h-.2c1-4.5 1.6-9.1 2.4-13.6 2.6 0 5.1-.8 7.3-2.1 2.5-1.8 3.3-4.7 3.6-7.7.5-4.9-.4-10.2-1.4-15-.3-1.7-3.3-1.3-3.1.4.5 4.4 1.3 8.8 1.2 13.2 0 2.4-.4 5.2-2.6 6.7-2.4 1.6-5.8 1.5-8.6 1.6-4.8 0-9.5-.2-14.3-.7-1.7-.2-3.4-.4-5.1-.9-.3-.4-.8-.6-1.3-.4-3-1-5.3-2.9-5.6-6.6-.3-3.1.5-6.4 1.1-9.5 1-4.9 2.3-9.7 3.5-14.5.1-.5-.1-1-.6-1.1-.5-.1-1 .1-1.1.6-1.3 5.2-2.8 10.4-4 15.6-.8 3.3-1.5 6.9-1 10.3.6 4.2 3.4 6.4 6.8 7.8-.5 3.5-.8 7-1 10.5-.3 3.7-.4 7.3-.4 11-1.8 0-3.5 0-5.3.1-.4 0-.8.4-.8.8s.4.8.8.8c1.8 0 3.7.1 5.5.4 0 .7.7 1.3 1.4 1.2.5 0 .9-.3 1.1-.8.6.1 1.3.3 1.9.5-.1 3.4-.4 6.9-.9 10.3-.3 1.8-.6 3.5-1.1 5.3s-1.2 3.3-1.2 5c0 .7.6 1.2 1.2 1.3-5.1.7-10.4 1.1-15.4.1 5.1-6.3 10.7-13.7 8.4-22.1-.3-.5-.9-.6-1.4-.3-.3.2-.4.5-.4.8 1.8 8.3-5.6 15.6-10.4 21.4-.6.6-.6 1.6 0 2.2.2.2.4.3.7.4 7.6 2.4 15.9 1.4 23.6.1.9-.3 1.4-1.2 1.2-2.2 0-.1-.1-.2-.2-.4-.8-1.7-1.9-3.2-3.2-4.5.5-2.1.9-4.3 1.2-6.5.6-4 .9-8 .9-12.1 0-.6-.4-1.2-1.1-1.4-1.1-.2-2.3-.4-3.4-.5.2-3.3-.1-6.8-.1-10.1.1-3.6.2-7.2.6-10.8 1.5.4 3.1.7 4.6.9 5.3.7 10.7 1 16 1-1.2 5.4-2.8 10.9-3.3 16.4-.1 1.4 1.9 1.6 2.3.4 1.1.9 2.9 1 4.4 1.5-2.8 5.7-4.2 12 1.3 16.7 4.4 3.7 9.3 5.8 11.3 11-7.7-1.5-15.6-1.7-23.4-2.5 0-8.7 2.1-17.2 3.9-25.7.1-.5-.2-.9-.7-1-.4-.1-.8.2-1 .5-2.6 9-4.8 18.1-5.2 27.5 0 .7.4 1.3 1.1 1.4 9.1 1.2 18.3 1.5 27.2 3.6.9.2 1.9-.4 2.1-1.3.1-.1.1-.4 0-.7zm-41-4c.2-.1.3-.2.4-.3.1-.1.2-.3.4-.5.1.2.3.4.4.6l-1.2.2zM141.6 152.6c-3.5 8.1-10 16.1-14.5 23.7-.6 1.1-1.2 2.1-2 3.1-1 1.2-2.1 2.3-3 3.6-1.5 1.9-3 3.9-4.3 5.9-1.2 1.8-2.5 3.7-3.8 5.3-1.3 1.5-2.2 3.3-2.4 5.2-.2 1.9.4 3.7 1.7 5.1 2.7 2.8 8.1 3.8 10.5.3 2-3 .2-6.8-1.4-9.4-.9-1.5-2.1-3.2-1.2-5 .9-1.7 1.9-3.4 3-4.9.9-1.3 1.8-2.5 2.7-3.8 1.1-1.7 2.4-3.3 3.4-5.1 4.2-7.4 12.4-16.7 15.7-24.5.6-1.6-3.7-1.1-4.4.5zm-20.2 48l.1.3c0 .2.1.3.1.5V202.3c0 .1 0 .2-.1.3s-.1.2-.1.3v.1c-.1.1-.2.2-.3.4h-.1c-.1.1-.2.2-.4.3h-.1c-.2.1-.3.1-.5.2l-.5.1h-.7c-.3 0-.7-.1-1-.1h-.2l-.5-.2-.5-.2-.4-.2c-.3-.2-.5-.3-.8-.5l-.2-.2c-.1-.1-.2-.2-.3-.4s-.2-.3-.3-.4l-.1-.2c-.1-.2-.1-.3-.2-.5 0-.1-.1-.2-.1-.2-.1-.4-.1-.8-.1-1.2v-.1-.3c0-.1.1-.5.1-.7s.1-.2.1-.4v-.1c.1-.3.2-.5.3-.8.2-.5.5-1.1.8-1.6l.2-.3.3-.4c.2-.3.4-.6.7-1 .1-.1.1-.2.2-.3.4.7 1.1 1.3 1.6 1.9s1 1.3 1.5 2l.6.9.1.1.3.5c.1.4.3 1 .5 1.5zM190.8 123.7c-.7-.2-1.4.1-1.9.6h-.1c-.9.7-1.2 2.6-1.3 3.7-.2 1.5.9 2.9 2.4 3h.3c1.8-.1 2.4-1.8 2.4-3.3s-.2-3.5-1.8-4zM169.8 123.7c-.7-.2-1.4.1-1.9.6h-.1c-.9.7-1.2 2.6-1.3 3.7-.2 1.5.9 2.9 2.4 3.1h.4c1.8-.1 2.4-1.8 2.4-3.3s-.3-3.6-1.9-4.1z"/><path class="st10" d="M213.9 99.3c.6-.6.6-1.7-.1-2.3-.2-.2-.4-.3-.6-.4-6.4-2.5-13-4.4-19-7.8-.6-.4-1.4-.3-1.9.3-3.7 4.3-8.4 7.3-13.2 10-2.8-5.4-10.9-7.3-16.6-6.1-7.8 1.5-15.3 8.2-14.6 16.6 0 .3.1.5.3.7-3.4 1.6-6.7 3.7-9.5 6.2-5.8 5-7.9 12.2-4.8 19.3 4.6 10.5 16.1 16.1 26.7 18.3 2.8.6 5.6.9 8.4 1.1.1 6.3.8 9.5-.6 15.8-3.8-.3-7.3 1.3-8.9-2.5-1.7-4.1-.5-9 1-13 .6-1.5-1.8-2.1-2.4-.6-2 5-3.1 10.7-.8 15.8 2.1 4.8 7.4 3.3 12.2 3.4.7 0 1.3-.5 1.5-1.1 2.3-6.6 1.7-10.7 1.4-17.6 1.1 0 2.1 0 3.2-.1-.3.1-.6.4-.7.8-1.3 5.3-1.8 8.4-.7 12.8 1 4.1.7 7.5 4.5 8.4 1.7.4 1.4-1.7 0-2.6 0-.7 0-1.8.1-3 1.3 3.5 3.2 6.8 5.5 9.7.8 1 2.7 1.5 3.6.2.4-.7.4-1.7 0-2.4-.2-.4-.5-.7-.8-1-.2-.1-.4-.1-.5-.3-.2-.2-.4-.4-.5-.6-1.4-2-2.6-4.1-3.5-6.4-1.6-4.1-2.2-8.6-1.7-13 .1-.6-.1-1.1-.6-1.4.1-.6.2-1.1.3-1.5v-.2c11.9-1.7 23.2-7.3 29.3-17.9 3.7-6.2 3.4-13.9-.7-19.8-1.9-2.6-4.3-4.7-7.1-6.2 1.4-1.2 2.8-2.4 4.1-3.6 2.9-2.5 5.4-5.2 7.7-8zm-36.7 4.9h-2.6l2.1-1 .5 1zm-14.8-7.7c3.1-.9 6.3-.7 9.3.6 1.8.8 3.2 2.2 4 4-1.8 1-3.7 2-5.5 3-.2.1-.4.3-.4.5-2.2.2-4.4.6-6.5 1-4.4.8-8.7 2.1-12.9 3.8-.1-6.8 5.9-11.3 12-12.9zm14.7 76.1c-.6-1-.3-2.2-.8-5-.5-3.3-.1-6.7 1-9.8-.3 2.7-.2 5.4.2 8.1-.2 2.5-.3 4.9-.4 6.7zm1.6-16.5c-.4.1-.7.4-1 .7l.1-.2c.3-.6 0-1.2-.5-1.5-.1 0-.1-.1-.2-.1.6 0 1.3-.1 1.9-.2-.1.4-.2.8-.3 1.3zm30.1-26.5c-2 12.5-16.5 19.5-27.7 21.5-2.9.5-5.9.8-8.9.8h-3c-9.4-.3-19.1-3-25.9-9-6.4-5.7-11.1-14-5.1-21.7 5.5-7 15.1-10.5 23.4-12.6 7.5-1.9 15.9-2.8 23.6-1.1-.5.8-.1 1.9.7 2.4.2.1.4.2.7.2 3.5.3 6.9 1.1 10.2 2.4.3.6 1 .9 1.6.7 6.6 3 11.6 8.3 10.4 16.4zm-10-20.4c-2.8-1.1-5.8-1.8-8.7-2.1-.1-.4-.4-.8-.8-.9-3-1-6-1.6-9.2-1.8.1-.1.1-.3.1-.4 0-.8 0-1.6-.2-2.3 5-2.5 9.9-5.3 13.8-9.4 5.2 2.8 10.9 4.6 16.4 6.6-1.7 1.9-3.5 3.7-5.4 5.5-1.9 1.6-4.1 3.1-6 4.8zM440.6 322.3c-4.3 4.3 0 8.1 2.8 11.4-2 1.5-3.2 3.9-3.1 6.4.2 3.3 3.5 4.3 6.3 4 .7 0 1.2-.6 1.1-1.3 0-.7-.6-1.2-1.3-1.1-5 .2-3.5-5.1.2-5.9 1.3-.3 1.4-1.8 1-2.8-.9-1.8-2.5-3.1-3.8-4.5-3-3.1 1.6-6.6 4.1-3 1.4 2 4.5-.1 3.1-2-2.7-3.5-7-4.5-10.4-1.2zM456.8 316c-.8-.2-1.7.2-2.1 1-1.1 2.5-1.4 5.3-.8 7.9 0 .1.1.2.1.3-1.7-.7-3.1 2.2-1.3 3.1 5 2.3 4.3 8.4 1.1 11.9-1 1.2.7 2.7 1.8 1.6 4.5-4.6 4.7-11.6-.1-15.5 1.2.1 2.2-.8 2.3-2 0-.2 0-.4-.1-.6-.3-1-.3-2.1-.1-3.2 1.7 1.3 3.1 3 3.9 5 .3.9 1.3 1.4 2.3 1.1 1-.2 1.9-.4 2.9-.5.4 0 .8-.3 1-.6.8.2 1.7-.2 2-1 1-2.1 4-6 5.7-1.7.7 1.9-1.3 3.3-2.2 4.6-.9-1.4-3.5-1-3.3 1 .3 3.8-3.3 11.8-8.1 8.4-1.3-.9-3 .9-1.7 1.9.7.6 1.6 1 2.5 1.3-.7.5-1 1.4-.8 2.2 1.1 4-2.8 6-5.3 3.2-1.1-1.2-3.2.6-2.2 1.9 4.6 5.5 10.1 1.8 11.1-3.8h1.4c2.1 9 18.3 5.3 14.2-5.1-.6-1.5-1.5-2.8-2.6-4-2-2.2-3.1-3.3-1-5.8s2.6-4.9 1.3-8c-2.7-6.8-11.3-2.6-12.6 2.8v.1c-.6 0-1.1 0-1.7-.1-1.3-3.7-4.1-6.3-7.6-7.4zm18.2 20.3c7.9 7.7-4.5 10.8-4.5 4.8-.1-1.1-1-1.9-2.1-1.9h-.8c2.3-1.4 4.2-3.5 5.1-6 .6 1.2 1.4 2.2 2.3 3.1zM452 337.3v-.1.1z"/><path class="st10" d="M449.1 335.5c-.1.3-.2.5-.2.8-.2.6 0 1.2.5 1.6.4.4 1 .5 1.6.3.3-.1.5-.3.7-.5.1-.1.2-.2.3-.4v-.1c0 .1-.1.1-.1.2.1-.1.1-.2.2-.3l.1-.2v.1c.3-.4.3-.9.2-1.4-.3-.9-1.3-1.4-2.2-1.1-.6.3-.9.6-1.1 1zM448.2 330.6c0 .3.1.6.3.9v.1c.3 1 1.4 1.5 2.4 1.2 1-.3 1.5-1.4 1.2-2.4-.1-.4-.4-.8-.8-1-.3-.3-.7-.5-1.1-.6-.9-.2-1.8.4-2 1.3 0 .1-.1.3 0 .5zM453 331.9l.1-.1c.2-.1.3-.2-.1.1z"/><path class="st10" d="M453.1 331.8c-.2.1-.4.3-.5.4-.6.3-1 .9-1 1.6.1 1 .9 1.7 1.9 1.6.1 0 .3 0 .4-.1 1-.2 1.7-1.2 1.5-2.3-.1-.5-.4-1-.9-1.2-.4-.2-1-.2-1.4 0zM496.1 279.5c-2.1-.1-4.2-.1-6.3 0-2.9.1-4.3-.2-5.8-2.8-1.3-2.3-3.9-3.1-6.4-3.3-6-.7-12.7-.8-14.8 5.9-1.3 4-5.5 1.7-7.3 4.7-1.5 2.6-.9 5.1.1 7.8.1.4.5.7 1 .8-.7 1-.2 2.9 1.4 2.8 1.3-.1 2.6-.3 3.9-.6.7-.2 1.1-.8 1.1-1.5-1.1-8.6 8.5-3 8-1.5-.2.8.2 1.7 1 1.9.1 0 .3.1.5.1 2.8-.4 5.6-.6 8.5-.7 1.1 0 4.6-.4 5.5.4.6.6 1.6.6 2.2 0 .2-.2.3-.4.4-.7.2-1 .5-2 .9-3 1.3-3.2 7-.9 6.2 2.1-.2.8.3 1.7 1.1 1.9.1 0 .3.1.4.1 1.4-.1 2.8-.3 4.3-.4.8 0 1.5-.7 1.5-1.5.7-7.2.3-11.7-7.4-12.5zm-2.6 5.2c-3.7-.9-5.9 2.2-6.9 5.3-3.5-1.1-8.7-.2-12.3.3-.4-3.1-4.5-4.6-7.5-5-5.1-.7-7.1 2-7 6.4h-2.1c.1-.2.1-.5 0-.7-.9-3.4-.2-5.5 3.5-6.3 1.3-.3 2.8-.8 3.4-2.2 1.1-2.5 1.4-5.2 4.4-6.1 2.8-.9 11.1-.9 12.5 2.3s3.5 3.7 6.7 3.9c2.6.1 5.2-.1 7.9 0 4.8.3 4.8 4.1 4.4 7.8l-1 .1c-.1-3-2.9-5.1-6-5.8z"/><path class="st10" d="M469.2 293.5c-.8-1.3-2.6-1.7-3.9-.9-.6.4-1.1 1.1-1.3 1.8-.2.4-.2.9-.1 1.4.4 1.5 1.9 2.5 3.4 2.1.3-.1.5-.2.8-.3 1.5-.8 1.9-2.7 1.1-4.1zM493.2 291.8c-.6.1-1.2.3-1.7.6-.2.1-.5.3-.7.4-.1.1-.2.2-.3.4-.2.2-.4.4-.5.6-.4.6-.6 1.4-.4 2.1.2.8.7 1.4 1.4 1.7 0 .1.1.1.1.2.9.9 2.5.9 3.4 0 .7-.7 1.2-1.7 1.3-2.8.3-1.7-1-3.4-2.6-3.2zM170.9 142.8c-2.4.1-4.8-.3-7-1.4-.7-.4-1.6-.2-2 .5-.4.7-.2 1.6.5 2 2.5 1.7 5.4 2.5 8.4 2.5 2.3 0 2.4-3.6.1-3.6z"/><path class="st6" d="M162.2 241.9c-1.2 2.9-4.3 9.4-2.2 12 1.3 1.6 8.3 3 10.3 1.9 5.7-3-5-15.3-9.8-13.3"/><path d="M199.1 202.7c-9.3-8.1 2-10.6 9.2-11-.5-2.5-6.6-10.9-5.6-13.9 1.6-4.9 17.6-6.2 21.4-6.2 4 .3 8 .8 11.9 1.8 9 1.8 4.6 4.2 5.3 11.9 4.1.3 8.9 2.7 13 4 6.8 2.1 6.4 2.8 3.9 10-6.7-3.4-21.7-5.3-29.3-3.5-6.7 1.5-2.9 4.8-6.2 8.7-2.7 3.2-14-1.4-19.6-.6" fill="#d09206"/><path class="st10" d="M572.2 168.7l-.6.4 2-.5-.4-.1.9 1.8c1.9-2.4 5.6-4.6 8.7-4.5.8 0 2.2-.3 2.5-1.1s-.3-1.4-1.1-1.5c-5.1 0-10 2.2-13.3 6.1-.7.9-.2 1.6.9 1.8 1 .1 2.1-.2 2.9-.8.5-.2.8-.9.6-1.4-.1-.2-.2-.3-.3-.4-.8-.7-2.1-.2-2.8.2zM580.9 170.9c-2 1.8-1.8 6.4.7 7.7s4.9-1 5-3.5c.1-2.9-2.2-5-5-3.9-1 .3-1.7 1.2-1.7 2.2 0 1.1.6 3.2 1.9 3.6 1.1.3 2.3-.4 2.7-1.4.4-1.7 0-3.4-1.1-4.7-.3-.3-1.2.1-1.5.2-2.9 1.3-1.8 4.6 0 6.5.3.3 1.2 0 1.5-.2 2.7-1.3 1.8-4.2 0-5.9-.4-.4-1.6.1-1.9.5-1.2 2.1-.9 4.7.7 6.5.3.3 1.4-.1 1.7-.3 2.1-1.6 1.1-4-.2-5.9-.3-.4-1.2-.1-1.5.1-1.8 1.1-2.5 3.3-1.6 5.2.8 1.8 2.8 1.8 4.2.5.9-.9 2.1-3 .7-4-1.1-.7-2.9-.3-3.9.4-1.9 1.2-.6 2.8.8 3.8.7.2 1.4 0 1.9-.5 1-1.3.8-3.1-.3-4.3-.3-.3-1.7.1-1.9.5-.6 1.3-.4 2.9.5 4.1.3.4 1.8-.1 1.9-.5.3-1.3.2-2.7-.2-3.9-.1-.5-1.8 0-1.9.4-.3.9-.3 1.8 0 2.7.1.5 2.1 0 1.9-.5-.3-.8-.3-1.7 0-2.5l-1.9.4c.4 1.2.5 2.5.2 3.7l1.9-.5c-.8-1.1-1-2.5-.4-3.7l-1.9.5c1 1.1 1.1 2.7.2 3.9l1.9-.5c-.6-.4-2.5-1.9-1.4-2.8.5-.4 1.3 0 1.5.6.1.6 0 1.2-.4 1.7-.1.2-.4.5-.5.8-.1.4-.2 0 .2.2-.3-.2-.6-.5-.7-.8-.8-1.3-.9-3.8.6-4.6l-1.5.1c1 1.4 2.4 3.9.6 5.2l1.7-.3c-1.5-1.7-1.7-4.2-.6-6.1l-1.9.5c1.1 1 2.7 3.9.7 4.9l1.5-.2c-1.1-1.1-2.8-4.5-.7-5.5l-1.5.2c.8 1 1.2 2.2 1.1 3.4 0 .1-.3 1.4-.3 1.4l.8-.2-.2-.1c0-.1-.6-.8-.6-1-.3-.7-.9-2.3-.2-3s1.8.9 2.1 1.5c.4 1 .5 2.1.2 3.2-.1.3-.3 1.3-.7 1.4s-1.3-.7-1.5-1c-1.1-1.6-1.2-4.9.4-6.2.3-.3-.3-.4-.5-.4-.8-.1-1.3.1-1.6.4zM600.6 160.5c2.2-.6 4.5.9 6.4 1.8 1 .5 3.3 1 3.9 2.1s4.3-.4 3.9-1c-.9-1.5-4-2.4-5.5-3-3.2-1.4-5.6-2-9-1.1-.4.1-2 .6-1.8 1.2s1.7.2 2.1 0zM603.9 167.3c-2 2.5-2.5 8.1 1.8 8.5 3.5.3 3.7-4.4 2.3-6.5-1.7-2.5-4.9-2-5.1 1.2-.1 1.3.2 2.6 1 3.6.8.9 2.2 1.1 3.3.4 1.1-.9.8-2.6.5-3.8-.3-1.4-.9-3.2-2.2-4-.6-.3-1.3-.1-1.7.5-1.1 2.2-1.6 8 2.4 7.2 3-.6 1.7-5.4 0-6.7-.6-.3-1.3-.1-1.7.5-.8 2.2-.6 4.3 1.4 5.7.5.2 1.1.1 1.5-.3 1.6-1.7.4-3.8-.9-5.4-.4-.3-.9-.3-1.3-.1-1.2.6-2 1.8-1.9 3.1.3 1.4 1.7 2.2 3.1 1.8 2.9-.6.7-4.4-.8-5.3-.6-.3-1.4 0-1.7.6-.6 1.5-.4 3.2.4 4.6.4.6 2.3 0 1.8-.8-.7-1.2-.8-2.7-.3-4l-1.7.6c1 .6 1.3 1.8 1.8 2.8v.4l.4-.2c-.3 0-.6-.1-.8-.4-.1-.1-.2-.3-.3-.5-.2-.7.1-1.5.7-1.9l-1.3-.1c.9 1 2.3 2.8 1.1 4.1l1.5-.3c-1.6-1-1.7-2.8-1.1-4.5l-1.7.5c.6.6.9 1.3 1.1 2.1.2.5.2 1 .3 1.5 0 .2-.1.4 0 .5 0 .4.1.2.1.2-1.7-1-1.1-4.3-.4-5.8l-1.7.5c1.8 1.1 1.8 4 1.9 5.8l-.1.4c.6-.1.7-.2.4-.2-.1 0-.2-.1-.3-.2-.3-.3-.5-.7-.7-1.1-.4-1-.4-2-.2-3 0-.2.2-.4.2-.5 0 0-.3-.1-.1.1s.5.4.7.6c.3.3.5.6.7 1 .5 1.1.6 2.3.2 3.4-.3.7-.4.6-1 .1-.6-.4-1.1-1.1-1.3-1.8-.3-1.6.1-3.3 1.1-4.6 1-.8-.8-.9-1.4-.3zM161.5 121.1c2.4-2.7 6.1-3.2 9.4-3.9.4-.1 2-.6 1.8-1.2s-1.7-.2-2.1-.1c-4.4 1-9.5 1.9-12.6 5.4-.8 1 2.9.5 3.5-.2zM189.3 118.3c3.7.3 7.8 2.3 10 5.3.8 1.1 4.5-.2 3.6-1.5-2.6-3.7-7.7-5.7-12-6-1.5-.1-4.1 2.1-1.5 2.3l-.1-.1z"/></g><g id="Calque_6"><path class="st10" d="M112.7 194.7c-1.8-.4-3.6-.8-5.4-1.1-2.5-.4-3.6 3.2-1 3.8 1.8.4 3.6.9 5.4 1.2 1.1.3 2.1-.3 2.4-1.4.3-1.1-.4-2.2-1.4-2.5zM238.4 176.5c-.2-1.6-2.8-1.7-2.6 0 .4 3.7-.3 7.5.1 11.2.1.9.8 1.5 1.7 1.4.8-.1 1.4-.7 1.4-1.4.4-3.7-.2-7.6-.6-11.2zM216.4 183.1c-.9-3.1-1.6-6.2-2.5-9.3-.2-.7-1-1.1-1.7-.8-.6.2-1 .9-.9 1.5.7 3.1 1.5 6.2 2.2 9.3.5 1.9 3.5 1.1 2.9-.7zM201.9 199.6c-.3-1.6-.4-3.3-.4-5 0-.9-.7-1.6-1.6-1.6-.9 0-1.6.7-1.6 1.6-.1 2 .1 3.9.4 5.8.5 2.1 3.7 1.3 3.2-.8zM250.6 230.2c-.1-.4-.3-.9-.6-1.3-.3 1.7-1.1 3.5-1.1 5.2s1.9 2.8 2.3.8c.1-1.5-.1-3.2-.6-4.7zM245.8 245c-.3.6-.5 1.5-.7 1.9-.4.8-1.1 1.8-.7 2.8 1.5-.6 4.1-1.7 4.3-3.5.2-1.5-1.5-2.8-2.7-1.5 0 0-.1.2-.2.3zM258.2 240.3c-1.4-.3-3.2-.4-3.8.1-.6.6-.6 1.6 0 2.2l.2.2c1 .7 1.4 0 2.3-.2.6-.2 4.5-.3 2.8-1.6-.3-.4-.9-.6-1.5-.7zM279.6 172.5c-2.6 2.8-4.7 6.3-6.9 9.5-2.3 3.1-4.3 6.5-5.8 10.1-.5 1.3 1.5 2.1 2.2.9 2.1-3.5 4.5-6.9 7.1-10 2.1-2.6 4.8-5.3 6.3-8.4.7-1.6-1.4-3.7-2.9-2.1z"/><path class="st10" d="M293.1 169c1.5-2.3 2.3-4.8.3-6.8 1.5-2 1.3-4.7-.4-6.5-1.6-1.6-3.9-1.3-5.8-.4-1.7-1-4.6 0-6.1.8-3 1.7-3.3 4.5-2.2 7.1-2.8 1.4-3.4 6.5.7 7.8 1.5.5 2.1-1.9.7-2.4-1.8-.6-1.1-3.6.6-2.7.7.4 1.6.2 2.1-.5.3-.6.2-1.3-.2-1.8-1.3-1.4-2.2-3.2-.4-4.5.6-.4 1.3-.7 2-.9.9-.2 1.2.3 1-.4.2.8 1.1 1.3 1.9 1.1.1 0 .2-.1.3-.1 2.5-1.8 4.5-.6 3.2 2.4-.2.4-.2.9 0 1.4-.2.4-.1.9.3 1.2 2 1.6-.1 3.9-1.2 5.3-.6.7-.5 2.1.6 2.3.5.1.9.2 1.4.3.4-.3.4-.3 0 .1-.5.4-1.1.8-1.7 1.1-1.1.6-2.3 1-3.3 1.7-1.5.9-.5 3.4 1.2 2.8 2.5-.8 4.7-2.2 6.3-4.1 1.3-2.3.2-3.6-1.3-4.3z"/><path class="st10" d="M283.3 175.8c-4.5 5.4-9.8 10.2-13.3 16.3-.4.7-.1 1.6.7 2 .7.3 1.5.1 1.9-.5 3.4-6 8.1-10.8 12.5-16 .9-1.2-.8-3-1.8-1.8zM261.2 163.8c-1.2-.6-2.6-.8-3.9-.5-1 .3-1.5 1.3-1.3 2.2.3.9 1.3 1.5 2.2 1.3-.4.1.6 0 .3 0 .2 0 .4.1.5.1h.1l.1.1c.9.5 2 .2 2.5-.6.6-1 .3-2.1-.5-2.6zM258.6 169.1c-2.1-2.8-5.3-2.4-8.3-1.4-1.9.7-1.1 3.7.8 3 1.2-.4 3.5-1.2 4.4.2 1.3 1.9 4.5 0 3.1-1.8zM261.5 174.2c-.6-.9-1.5-1.6-2.6-2-1-.3-2.1-.2-3.1.2-1 .3-1.5 1.3-1.3 2.2.3 1 1.3 1.5 2.2 1.3.3-.1.5-.2.8-.2-.3 0 .3.1.3.1.3.2.6.4.8.7 1.3 1.6 4.2-.6 2.9-2.3zM255.5 176.8c-1.4 0-2.9.1-4.3.3-2 .3-1.5 3.7.5 3.5 1.3-.1 2.6-.2 3.8-.2 1 0 1.8-.8 1.8-1.8s-.8-1.8-1.8-1.8zM264.8 176.3c-.8-.8-2.1-.7-2.8.1-.6.6-.7 1.6-.3 2.3.6.7.9 1.6.8 2.5 0 2.1 3.2 2.6 3.6.5.4-2-.1-4-1.3-5.4z"/><path class="st10" d="M264.1 221.6c.7.5 1.5.8 2.3.8 1.6-.1 1.9-2.3 2.4-3.4.9-2.1 1.9-4.2 2.8-6.3 1.8-4.1 3.4-8.4 3.4-13 0-1.3-1.1-2.4-2.4-2.4-3.1.2-6.2.3-9.3.3.3-3.6.9-7.1 1.5-10.6.9-.4 1.3-1.5.9-2.5-.2-.5-.6-.8-1.1-1-5.2-1.3-10.9-.8-16.3-1.2.2-2.3.4-4.6.7-6.9 2-.4 2.5-3.7.2-4.3-2.9-.6-5.9-1.1-8.8-1.6.8-.1 1.4-.8 1.4-1.6v-.2c-.3-1.6 1.6-2.4 2.8-1.7.8.4 1.8.1 2.3-.7.1-.2.2-.5.2-.8.4.7 1.4.9 2.1.5.2-.1.3-.2.4-.4.9-1.3 2.5-.4 3.4.4 1.5 1.5 3.7-.8 2.3-2.3-2.2-2.5-6.4-2.6-8.2.4.1.2.1.5-.2.6-.2.1-.5.1-.6-.2-.1-.1-.1-.3 0-.4-3.6-1.8-8.2 1-7.2 5.2.1.4.3.7.6.9-3.2-.5-6.3-1.3-9.4-2.2 0-3 .1-6.7-.9-9.6.1-.5-.1-1-.5-1.2-2.1-4.3-5.7-7.1-6-12.3 0-.3-.2-.6-.4-.7.2-.1.3-.2.5-.3 1.8-1.5 1.2-4.1-.2-5.6-1-1.2-2.8.3-2.1 1.6.4.7 1.6 2 .6 2.6-.8.3-1.6.4-2.5.2-.1-1.4-.4-2.9-.5-4.3.9-.2 1.8-.4 2.7-.3 1 .1 1.1-1.4.2-1.6-1.3-.2-2.7-.1-4 .1-.6 0-1 .4-1 1 0 2 .5 4 .5 6.1 0 .5.3.9.8 1l.5.1v.3c.4 2.5.7 4.7-.4 7-.7 1.4-1.7 2.6-2.3 4.1-1.3 3.6-1.5 7.6-.5 11.4 0 .2.2.4.4.5-5.4 1.1-10.7 2.9-16.1 3-.4 0-.8.2-1 .6-.8.3-1.2 1.2-1 2 .9 4.5 2.3 9 3.5 13.4.2.7 1 1.1 1.7.8.6-.2 1-.9.9-1.5-1-4.2-1.8-8.4-2.5-12.6 7.5.1 14.8-1.9 22.3-2.4.9 8.6.4 17.2.4 25.9h-.2c-3.1 1.1-3.7 5.2-3.9 8.5-2.4-.4-4.8-.6-7.3-.7.3-.4.3-.9.1-1.4-1.6-4.2-2.3-8.3-3.1-12.6 0-.2-.1-.4-.2-.5.6-.8.4-1.9-.4-2.5-.3-.2-.7-.4-1.1-.4-5.1-.3-10 3-15.1 1.7-.7-.2-1.5.2-1.7 1 0 .1-.1.3 0 .4-1.1.3-1.8 1.3-1.7 2.5.6 3.4 1 7 1.9 10.4.5 1.7 3.4 1.4 3.1-.4-.5-3.5 0-7.3-1.2-10.7 4.4.9 9.3-.2 13.8-.8v.3c.6 4.3.3 9.3 2.4 13.2-7.6-.3-15.3.1-22.7-.2-.6-.1-1.2.4-1.3 1v.1c-.4.4-.5 1-.4 1.5.8 4.6 2 9.1 3.6 13.5l-1.1-.3c-3.2-1.1-6.5-2.2-9.7-3.2-11.2-3.6-22.5-7-33.9-10.2-2.8-.8-5.7-1.6-8.5-2.3-1.5-.4-7.1-2.5-8.6-1.4-3.4 2.4 6.9 5.2 8.2 5.6 1.9.6 4 1.2 5.9 1.8 13.5 4.1 26.9 8.7 40.4 12.8l5.1 1.5c2.1.6 2 .5 1.8 2.5-.4 2.7.3 5.5.5 8.2.2 2.2-.6 6 .7 7.9.6.7 1.5 1.1 2.4 1 .9-.4.8-1.3 1-2.3.7-2.5 1.9-4.7 2.6-7.2.6-1.9 1.6-6.7 3.9-6.8 1.3 0 3 .8 4.2 1.2 1.5.5 4.8.9 5.8 2.2.9 1 1.2 4 1.4 5.3s.4 3.7 1.4 4.8c1.8-.3 2.1-1 2.8-2.6.2-.4 2-5 1.8-5.1 11.1 4.1 22.5 9.2 34.1 10.5 2.5.3 3-3.8.6-4.4-3.5-.8-7.4-1.5-10.6-3 1-.5 1-2.3 1.4-3.2 1.6-3.4 6.2-8 10.4-7.3 4.3.8 7.7 3.9 9.1 8 1.9 6.8-.3 16.4-7.8 18.9-3.6 1.2-7.1 0-10.1-2.2-1.8-1.3-3.5-2.9-3.6-5.2 0-.7.4-1.6.1-2.3-.1-.3-1.8-1.6-1.8-1.2-.8 6.1-.3 12.7 6 15.8 4.1 2 8.8 2.5 13.3 2.6 10.4.1 14-9.1 14.2-18 .2-9.4-3.2-19.8-13.2-22.4-5.2-1.2-10.6 0-14.8 3.2-2 1.7-3.4 3.9-4.2 6.3-1.5-.3-2.9.1-4.5.2-1.1.1-6.8 0-7.3 1-.4.8.5 1.7 1.2 1.8 2.5.3 10.8-.9 9.3 3.3-3.9-1.2-7.9-2.5-11.8-3.9.2-.4.2-.9.1-1.3-.9-4-2-8.3-2.1-12.4 0-2.9 0-6-.3-8.9-.2-2.2-.5-3.6.1-5.9.2-.7.4-3.3.9-3.7.3-.2 1.2 0 1.5 0 1.3-.1 2.6 0 3.9.3 1.2.4 2.4.6 3.6.8 3.2.4 6.4.9 9.6 1.2 9 .9 18.1 1 27.1.1-.1 2.7-1.9 6-2.9 8.5-1.3 3.3-2.5 7-3.5 10.8zm-50.9 5.9c-5.4-1.8-10.9-3.4-16.4-5-.6-.5-1.3-.8-2.1-.6l-2-.6c.2-.6.2-1.2-.1-1.7-2-3.7-3.4-7.7-4.2-11.9 1.6-.1 3.2-.1 4.9 0 2.7.1 5.5.3 8.1.8 2.9.4 5.8.9 8.8 1.2 2.5.3 5.8-.2 8.1.4 1.9.5 1.3 4.6 1.5 6.4.3 2.8.6 5.7.8 8.5 0 .6.4 1.1 1 1.3.2 1.5.4 2.9.7 4.4-3.1-1.2-6.1-2.3-9.1-3.2zm13.8-66.1c-.9.2-1.8.5-2.5.6-.6.2-1.3.2-1.9.1-.7-.3-.5-1.4-.4-2.1 1 0 2.1-.1 3.1-.3.5-.1.9-.1 1.4-.2.1.6.2 1.2.3 1.9zm-1.9 5.3c-.3-.2-.7-.4-1.1-.4-2.4-.1-4.9 0-7.3.5.1-.2.2-.3.1-.5-.6-5.5-.2-9.3 2.6-14.2 1.5-2.6 1.2-5.3.7-8.1.3 0 .6 0 .9-.1v.2c.2 3.8 1.5 6.4 3.5 9.5.7 1 1.2 2.1 1.6 3.2-.5.2-1 .4-1.4.6-1.1.4-2.7.4-3.6 1.1-.3.2-.4.6-.2.9v.1c-.6 2-.6 4.2 1.8 4.7 1.1.2 2.2.1 3.3-.1.4 0 .9-.1 1.4-.1.1.7.2 1.5.3 2.2l-1-.4c-.6-.2-1.3.1-1.5.7-.1.1-.1.2-.1.2zm19 29.9c0 .2 0 .3.1.5l-3.5-.1c-4.5-.2-9.3-1.6-13.8-1.3.2-8.7-.3-17.4-1.4-26 .2-.3.3-.7.4-1.1 6.4 3.3 13.6 4.8 20.5 6.6-1.3 6.9-2.7 14.2-2.3 21.4zm15.4 1c-3.9-.1-7.8-.2-11.8-.4.1-.2.1-.4.1-.6 0-3.8.1-7.5.3-11.2 1.9.3 3.9.6 5.9.9-.5.1-.9.5-1 1-.4 1.8-.5 3.6-.4 5.4.1.8.8 1.4 1.5 1.3.7-.1 1.2-.6 1.3-1.3 0-1.6.1-3.1.3-4.6.2-.7-.2-1.3-.8-1.6 2.2.3 4.5.5 6.6.6-.8 3.4-2.2 7-2 10.5z"/></g><g id="Calque_4"><path class="st10" d="M308 272.3c-45.2-.1-90.3 3-135.4 6.9 1.9-20 2.4-40.3 3.8-60.4l4.2-62.4c1.3-20.6 1.9-41.3 3.9-61.8 1.9-19.5 3.9-38.9 1.6-58.5 39.3 3.6 78.6 6.5 117.9 10.7 1 35.6-6.8 70.5-8.7 106-1 18.6-1 37.2-1.3 55.8-.1 8.9-.4 17.8-.7 26.6-.4 9.5-1.6 19-1.9 28.4-.1 2.2 3.4 2.7 3.8.5 3-17.5 2.5-36 2.8-53.7.3-18.6.2-37.1 1-55.7 1.5-36.2 9.3-71.8 7.4-108.1.9-.8.9-2.2 0-3.1-.3-.4-.8-.6-1.3-.6-76.7-7.5-154-10.3-230.1-22.6-1.3-.2-1.9 1.8-.6 2.1 36 6.1 72.3 10.1 108.7 13.4 1.8 19.1-.2 38-2.2 56.9-2.1 20.5-2.8 41.1-4.2 61.7l-4.2 62.4c-1.4 20.8-3.5 41.6-3.6 62.4v.3c-34.7 3-69.4 6.5-104 9.3-1.6.1-1.6 2.5 0 2.4 81.1-5.4 161.8-14.5 243.2-14.8 2.6.1 2.6-4.1-.1-4.1z"/><path class="st10" d="M70.2 20.5c-.4 79.9-10 159.4-11.3 239.2 0 2.7 4.1 2.7 4.1 0 .9-79.9 10.5-159.3 10.3-239.2-.1-.9-.8-1.5-1.7-1.4-.8 0-1.4.6-1.4 1.4zM336.6 267c-5 2.8-12 4.6-15.7-1.1-.4-.6-1.2-.8-1.8-.4-.6.4-.8 1.1-.4 1.7 3.8 7.6 13.4 6 19.6 2.8 2-1 .2-4.1-1.7-3zM362.9 266.9c-4.7 2.4-12.2 4.4-16.7.7-1.3-1.1-3.1.7-1.9 1.9 5.4 5.2 14.4 3.4 20.5.7 2.3-1 .4-4.5-1.9-3.3zM329.8 30.3c-.2-1.6-2.6-1.6-2.5 0 7.4 77.3-11.2 154.1-9.5 231.4 0 2.5 3.9 2.5 3.8 0-1.8-77.3 16.4-154.2 8.2-231.4zM371.1 30.3c.1-1.7-2.6-1.7-2.7 0-4.2 77.1-4.5 154.3-.7 231.4.1 2.6 4.2 2.6 4 0-3.9-77.1-4.1-154.2-.6-231.4zM346.5 76.3c.2-1.6-2.3-1.6-2.5 0-5.9 60-4.5 120.2-4.6 180.4 0 2.5 3.9 2.5 3.9 0-.1-60-2.5-120.4 3.2-180.4zM355.1 21.5c-5.5 0-11-.9-16.2-2.6-.7-.2-1.5.1-1.9.8-2.2 4.1-5 5.2-9.4 5.4-.7 0-1.3.6-1.3 1.3 0 .7.6 1.3 1.3 1.3 5.2.2 8.6-1.2 11.4-5.2 5.1 1.8 10.5 2.8 16 2.8 2.5 0 2.5-3.8.1-3.8zM60.8 7c.3-.8-.1-1.7-.9-2-.1 0-.2-.1-.4-.1-4.8-.7-8.5-.5-12-4.3-.6-.6-1.5-.7-2.2-.3-4.9 3.8-10.5 4.5-16 1.4-.7-.3-1.5 0-1.8.6-.3.6-.1 1.3.4 1.7 5.4 3.6 12.5 3.7 18 .2 3.6 3.4 7.5 3.6 12.5 4.4.9.2 1.9-.3 2.2-1.2C45.1 100.5 43.4 195 42.3 289.1c0 2.6 3.9 2.6 4 0 .8-93.9 3.3-188 16.9-281 .2-1.5-1.8-2.2-2.4-1.1zM37.5 291.6c-2.9 2.1-7.7 4.1-10.9 1.4-.4-.3-.9-.5-1.4-.3-.2-.9-1.1-1.4-1.9-1.2-.3.1-.5.2-.7.4-4.4 4.6-9.7 7.5-16.2 5.9-.6-.1-1.2.3-1.4.9-.1.6.2 1.1.7 1.3 7.2 1.8 13.2-.8 18.6-5.4.1.2.2.3.3.4 4.1 3.8 10.4 2.4 14.6-.5 1.8-1.3.1-4.2-1.7-2.9zM20 1.5c-1.9.9-4 .8-6.1.9-.8.1-1.4.8-1.3 1.5.1.7.6 1.2 1.3 1.3 2.6.2 5.2-.1 7.6-1.1 1.8-.8.2-3.5-1.5-2.6zM24.6 8.7c-3 23.8-5.1 47.6-5.2 71.6 0 .8.6 1.4 1.4 1.4.8 0 1.4-.6 1.4-1.4.1-23.9 1.6-47.8 4.6-71.6.1-1.4-2.1-1.3-2.2 0z"/><path class="st10" d="M44.1 18.2c-2.1 12.1-4 24.2-6 36.2-.3 1.6 2.2 2.3 2.5.7 2-12.1 3.8-24.2 5.7-36.3.3-1.5-1.9-2.1-2.2-.6zM397.6 63.6c0-1.7-2.6-1.7-2.7 0-2.2 61.8-.5 123.5-1.5 185.3 0 2.4 3.7 2.4 3.7 0 .9-61.8-1.2-123.6.5-185.3zM455.1 55.1c-20.9-1.9-41.8-3.6-62.8-4.6-1.7-.1-1.7 2.6 0 2.7 21 1.1 41.9 3.1 62.8 5.2 2.1.2 2.1-3.1 0-3.3zM476.2 58.7c-2.1 66.3-7 132.7-6.1 199 0 .9.7 1.6 1.6 1.6.9 0 1.6-.7 1.6-1.6 1-66.4 3.8-132.7 5.7-199 .1-1.8-2.7-1.8-2.8 0zM459.8 92.9c-5.4-7.2-16.6-9-25-8.7-8.6.3-17.7 3.9-21.1 12.3-.5 1.3 1.7 2.3 2.3 1 7-14.7 30.8-11.9 40.6-2.1 1.6 1.7 4.7-.5 3.2-2.5z"/><path class="st10" d="M451.2 96.1c-10.5.3-20.9 1.3-31.4 1.6-.7 0-1.2.5-1.2 1.2s.5 1.2 1.2 1.2c10.5.2 20.9-.5 31.4-.3 2.3 0 2.3-3.7 0-3.7zM422.4 174.4c-3.1-2.6-7.4-2-10.9-.7-.8.3-1.2 1-1.2 1.8-.9.4-1.5 1.4-1.3 2.4.3 2.9 1.9 5.6 4.4 7.2 2.9 1.9 6.7 1.6 9.9 1.1.7-.2 1.2-.7 1.4-1.4.8-3.7.7-7.8-2.3-10.4zm-6.4 7.2c-1.8-.9-2.5-2.9-2.9-4.8 2.2-.7 4.7-1.1 6.7.2 1.6 1 1.6 3.4 1.3 5.2-1.8.4-3.6.1-5.1-.6z"/><path class="st10" d="M413.3 159.9c-.3-.5-.8-.8-1.4-.8-2.2.1-4.3 1.1-5.8 2.7-.2.3-.3.7-.3 1.1-.2.2-.2.5-.3.8-.2 7.5-.9 15-.1 22.5.2 2 3.3 2 3.1 0-.9-7.5-.1-15-.1-22.5v-.4c.8-.5 1.7-.8 2.6-.9 1.1 2.5 1.2 5.4 1.1 8.2 0 2.3 3.6 2.3 3.5 0 0-3.8-.2-7.6-2.3-10.7zM416.2 188.1c0-.7-.6-1.3-1.3-1.3-.7 0-1.3.6-1.3 1.3v5.2c-1-.4-1.8-1.1-2.2-2.1-.9-2-4.2-.1-2.9 1.7 1.4 2.2 3.8 3.5 6.4 3.5.8 0 1.4-.6 1.4-1.4-.1-2.3-.1-4.6-.1-6.9zM460 260.9c-14.7.3-29.4 3.2-44.1 2.6-1.3-.1-1.3 2 0 2.1 14.8 1 29.4-1.3 44.1-1.3 2.2 0 2.2-3.4 0-3.4z"/></g></svg>